<?xml version="1.0" encoding="utf-8"?>
<!-- Generated by IcoMoon.io -->
<!DOCTYPE svg PUBLIC "-//W3C//DTD SVG 1.1//EN" "http://www.w3.org/Graphics/SVG/1.1/DTD/svg11.dtd">
<svg version="1.1" xmlns="http://www.w3.org/2000/svg" xmlns:xlink="http://www.w3.org/1999/xlink" width="512" height="512" viewBox="0 0 512 512"><g id="icomoon-ignore">
</g>
<path d="M463.906 0h-144.281c-26.453 0-63.398 15.303-82.102 34.007l-223.495 223.495c-18.704 18.704-18.704 49.312 0 68.016l172.455 172.453c18.704 18.705 49.311 18.705 68.015 0l223.495-223.494c18.704-18.705 34.007-55.651 34.007-82.102v-144.281c0-26.452-21.643-48.094-48.094-48.094zM400 160c-26.51 0-48-21.49-48-48s21.49-48 48-48 48 21.49 48 48-21.49 48-48 48z" fill="#0AB5A2"></path>
</svg>
